<svg xmlns="http://www.w3.org/2000/svg" width="47" height="47" fill="none" viewBox="0 0 47 47"><path fill="#DD1B73" d="M23.16 46.32c12.79 0 23.16-10.37 23.16-23.16C46.32 10.37 35.95 0 23.16 0 10.37 0 0 10.37 0 23.16c0 12.79 10.37 23.16 23.16 23.16Z"/><path fill="#fff" d="m36.77 31.96-4.08-6.97a10.23 10.23 0 0 0 1.17-4.77c0-5.71-4.65-10.36-10.36-10.36-5.71 0-10.36 4.65-10.36 10.36 0 1.67.41 3.25 1.12 4.65l-4.14 7.09c-.23.39-.22.87.03 1.28.28.48.85.8 1.3.77l3.76.31c.17.01.33.1.43.25l2.1 2.98c.27.48.79.8 1.35.8h.02c.47 0 .89-.23 1.11-.61l3.24-5.53 3.24 5.53c.22.38.64.61 1.11.61h.02c.55-.01 1.08-.32 1.3-.73l2.14-3.05c.1-.14.26-.24.43-.25l3.67-.3h.04c.54 0 1.07-.3 1.35-.77.23-.42.24-.9.01-1.29ZM23.51 11.47c4.82 0 8.74 3.92 8.74 8.74 0 1.74-.52 3.36-1.4 4.73l-.04.02.01.02a8.732 8.732 0 0 1-7.31 3.96c-4.82 0-8.74-3.92-8.74-8.74 0-4.81 3.92-8.73 8.74-8.73Zm-4.49 25.09-2.06-2.93c-.38-.54-.97-.88-1.63-.93l-3.61-.27 3.51-6.01c1.69 2.25 4.28 3.8 7.23 4.1l.04.07-3.48 5.97Zm12.54-3.87c-.66.05-1.25.39-1.63.93l-2.05 2.96-3.5-5.99.04-.07c2.96-.26 5.57-1.78 7.29-4.01l3.44 5.89-3.59.29Z"/><path fill="#fff" d="m22.6 24.89 5.25-6.54c.28-.35.22-.86-.12-1.14a.819.819 0 0 0-1.14.12l-4.24 5.28-2.05-1.65a.819.819 0 0 0-1.14.12.82.82 0 0 0 .12 1.14l3.32 2.67Z"/></svg>