<svg width="47" height="47" viewBox="0 0 47 47" fill="none" xmlns="http://www.w3.org/2000/svg"><path d="M23.16 46.32c12.79 0 23.16-10.37 23.16-23.16C46.32 10.37 35.95 0 23.16 0 10.37 0 0 10.37 0 23.16c0 12.79 10.37 23.16 23.16 23.16z" fill="#DD1B73"/><path d="M16.43 26.1a.902.902 0 0 0-1.28-.02c-.36.35-.37.92-.02 1.28L19 31.35c.18.18.41.28.65.28.23 0 .46-.08.63-.26.36-.35.37-.92.02-1.28l-3.87-3.99zM19.19 23.79a.902.902 0 0 0-1.28-.02c-.36.35-.37.92-.02 1.28l3.87 3.99c.18.18.41.28.65.28.23 0 .46-.08.63-.26.36-.35.37-.92.02-1.28l-3.87-3.99z" fill="#fff"/><path d="M34.42 11.47a4.88 4.88 0 0 0-6.84.02l-2.59 2.53c-.07.07-.13.16-.2.24h-4.55c-.34 0-.67.14-.91.38L8.17 25.85c-.49.5-.5 1.3-.01 1.8L18.45 38.2c.25.26.58.39.92.39.33 0 .66-.12.91-.38l11.47-11.49c.24-.24.37-.57.37-.9v-5.31c.13-.04.25-.1.36-.2l1.84-1.69a4.88 4.88 0 0 0 1.59-3.56 4.81 4.81 0 0 0-1.49-3.59zm-4.11 14.12L19.37 36.54l-9.54-9.79 10.63-10.68h3.29c-.14.46-.24.93-.24 1.42a4.89 4.89 0 0 0 1.43 3.5l.36.37a.902.902 0 0 0 1.28.01c.36-.35.36-.93 0-1.28l-.36-.37c-.59-.59-.91-1.37-.9-2.21 0-.51.14-1 .38-1.44h4.61v9.52zm2.79-8.31-.97.9v-2.64c0-.71-.57-1.28-1.28-1.28h-3.51l1.5-1.47a3.076 3.076 0 0 1 4.31-.01c.62.6.96 1.4.95 2.26-.01.86-.36 1.66-1 2.24z" fill="#fff"/></svg>