<svg width="47" height="47" viewBox="0 0 47 47" fill="none" xmlns="http://www.w3.org/2000/svg"><path d="M23.16 46.32c12.79 0 23.16-10.37 23.16-23.16C46.32 10.37 35.95 0 23.16 0 10.37 0 0 10.37 0 23.16c0 12.79 10.37 23.16 23.16 23.16z" fill="#DD1B73"/><path d="M28.78 30.17h-.67v1.82h.16v-.03c0-.66.19-1.27.51-1.79z" fill="#000"/><path d="m38.63 22.97-2.89-4.37c-.46-.69-1.22-1.1-2.05-1.1h-4.68v-1.63c0-1.36-1.1-2.46-2.46-2.46H10.89c-1.36 0-2.46 1.1-2.46 2.46v13.66c0 1.36 1.1 2.46 2.46 2.46h.99a3.48 3.48 0 0 0 3.47 3.45c1.91 0 3.46-1.55 3.47-3.45h9.44c.01 1.9 1.56 3.45 3.47 3.45 1.91 0 3.46-1.55 3.47-3.45h1.37c1.36 0 2.46-1.1 2.46-2.46v-5.2c.01-.49-.13-.96-.4-1.36zm-21.62 9.01c-.01.9-.75 1.63-1.66 1.63-.91 0-1.64-.73-1.66-1.63v-.03c0-.91.74-1.66 1.66-1.66.91 0 1.66.74 1.66 1.66v.03zm10.19-1.81h-8.88c-.61-1-1.7-1.68-2.96-1.68s-2.35.68-2.96 1.68h-1.5c-.35 0-.64-.29-.64-.64V15.86c0-.35.29-.64.64-.64h15.67c.35 0 .64.29.64.64v14.31h-.01zm6.2 1.81a1.656 1.656 0 0 1-3.31 0v-.03c0-.91.74-1.66 1.66-1.66.92 0 1.66.74 1.66 1.66-.01.02-.01.02-.01.03zm3.82-2.45c0 .35-.29.64-.64.64H34.7c-.61-1-1.7-1.68-2.96-1.68-1.11 0-2.09.53-2.73 1.35V19.31h4.68c.22 0 .42.11.53.29l2.89 4.37c.07.11.11.23.11.35v5.21z" fill="#fff"/><path d="M21.54 19.97c-.6-.5-1.5-.41-2.05.14l-.45.45-.45-.45c-.55-.55-1.45-.65-2.05-.14a1.48 1.48 0 0 0-.1 2.18l2.59 2.59.01-.01.01.01 2.59-2.59c.6-.61.57-1.62-.1-2.18z" fill="#fff"/></svg>