<svg xmlns="http://www.w3.org/2000/svg" width="47" height="47" viewBox="0 0 47 47" xml:space="preserve"><path d="M28.78 30.17h-.671v1.82h.16v-.03c.001-.66.191-1.271.511-1.79z"/><path fill="#FFF" d="m38.63 22.97-2.89-4.37a2.454 2.454 0 0 0-2.051-1.1h-4.68v-1.63c0-1.36-1.1-2.46-2.46-2.46H10.89c-1.36 0-2.46 1.1-2.46 2.46v13.66c0 1.36 1.1 2.46 2.46 2.46h.99a3.48 3.48 0 0 0 3.47 3.45c1.91 0 3.46-1.55 3.47-3.45h9.44c.01 1.9 1.561 3.45 3.471 3.45s3.459-1.55 3.469-3.45h1.371c1.359 0 2.459-1.1 2.459-2.46v-5.2c.01-.49-.13-.96-.4-1.36zm-21.62 9.01c-.01.9-.75 1.63-1.66 1.63-.91 0-1.64-.729-1.66-1.63v-.03c0-.91.74-1.66 1.66-1.66.91 0 1.66.74 1.66 1.66v.03zm10.189-1.81H18.32c-.61-1-1.7-1.68-2.96-1.68s-2.35.68-2.96 1.68h-1.5a.644.644 0 0 1-.64-.64V15.86c0-.35.29-.64.64-.64h15.67c.35 0 .64.29.64.64v14.31h-.011zm6.201 1.81c-.01.9-.75 1.63-1.66 1.63s-1.641-.729-1.65-1.63v-.03c0-.91.74-1.66 1.66-1.66s1.66.74 1.66 1.66c-.01.021-.01.021-.01.03zm3.82-2.45c0 .351-.29.64-.64.64h-1.881a3.463 3.463 0 0 0-2.959-1.68 3.45 3.45 0 0 0-2.73 1.35V19.31h4.68c.221 0 .42.11.53.29l2.89 4.37c.07.11.11.23.11.35v5.21z"/><path fill="#FFF" d="M21.54 19.97c-.6-.5-1.5-.41-2.05.14l-.45.45-.45-.45c-.55-.55-1.45-.65-2.05-.14a1.48 1.48 0 0 0-.1 2.18l2.59 2.59.01-.01.01.01 2.59-2.59c.6-.61.57-1.62-.1-2.18z"/><path fill="#DD1B73" d="M23.5 46.703c12.814 0 23.204-10.389 23.204-23.202C46.704 10.686 36.314.297 23.5.297 10.685.297.297 10.685.297 23.501.296 36.314 10.684 46.703 23.5 46.703z"/><path fill="#FFF" d="M7.107 24.123a.928.928 0 0 1-.715-1.522l4.171-5.022 5.022 4.151a.93.93 0 0 1 .121 1.31.927.927 0 0 1-1.309.123l-3.59-2.975-2.985 3.599a.909.909 0 0 1-.715.336z"/><path fill="#FFF" d="M24.022 37.635c-.78 0-1.577-.062-2.353-.195-7.701-1.279-12.929-8.578-11.659-16.261l.185-1.471a.93.93 0 0 1 1.032-.81.93.93 0 0 1 .808 1.034l-.184 1.503c-1.105 6.708 3.437 13.048 10.123 14.163a12.213 12.213 0 0 0 9.162-2.115 12.181 12.181 0 0 0 4.971-7.969c1.104-6.677-3.437-13.006-10.124-14.122a12.294 12.294 0 0 0-10.737 3.458.914.914 0 0 1-1.309 0 .913.913 0 0 1 0-1.31A14.17 14.17 0 0 1 26.3 9.562c7.7 1.278 12.926 8.579 11.656 16.26a14.002 14.002 0 0 1-5.716 9.174c-2.452 1.738-5.296 2.639-8.218 2.639z"/><path fill="#FFF" d="m23.948 29.697-4.223-3.385a.937.937 0 0 1-.144-1.309.937.937 0 0 1 1.309-.145l2.771 2.232 5.594-6.976a.936.936 0 0 1 1.31-.143.943.943 0 0 1 .145 1.309l-6.762 8.417z"/></svg>