<svg xmlns="http://www.w3.org/2000/svg" width="24" height="24" fill="none" viewBox="0 0 24 24"><g fill="#001325" opacity=".92"><path d="M12 3a9 9 0 1 0 0 18 9 9 0 0 0 0-18Zm5.2 12.15a1.33 1.33 0 0 1-1 1c-1.407.17-2.823.248-4.24.23a31.991 31.991 0 0 1-4.24-.23 1.34 1.34 0 0 1-1-1A19 19 0 0 1 6.6 12a19.15 19.15 0 0 1 .23-3.16 1.37 1.37 0 0 1 1-1A33.45 33.45 0 0 1 12 7.63a33.37 33.37 0 0 1 4.24.22 1.37 1.37 0 0 1 1 1 19.15 19.15 0 0 1 .21 3.15 19.003 19.003 0 0 1-.23 3.12l-.02.03Z"/><path d="M11.35 10.32a.28.28 0 0 0-.41.24v2.82a.27.27 0 0 0 .41.23l2.44-1.41a.27.27 0 0 0 0-.47l-2.44-1.41Z"/></g></svg>