<svg xmlns="http://www.w3.org/2000/svg" width="24" height="24" fill="none" viewBox="0 0 24 24"><path fill="#001325" d="M12 3a9 9 0 0 0-3.69 17.2c0-.4.57-2.51.64-2.83.16-.66 1-4.21 1-4.21a3 3 0 0 1-.25-1.25c0-1.18.68-2.05 1.53-2.05A1.06 1.06 0 0 1 12.31 11a16.837 16.837 0 0 1-.7 2.81 1.23 1.23 0 0 0 1.25 1.53c1.51 0 2.66-1.58 2.66-3.87A3.33 3.33 0 0 0 12 8.05a3.66 3.66 0 0 0-3.82 3.67 3.29 3.29 0 0 0 .63 1.93.25.25 0 0 1 .06.24c-.07.27-.21.84-.24 1-.03.16-.13.11-.29.11a3.77 3.77 0 0 1-1.72-3.27c0-2.67 1.94-5.12 5.59-5.12a5 5 0 0 1 5.21 4.88c0 2.92-1.83 5.26-4.38 5.26a2.26 2.26 0 0 1-1.94-1s-.42 1.62-.53 2c-.11.38-.79 2.47-1 2.87A8.862 8.862 0 0 0 12 21a9 9 0 1 0 0-18Z" opacity=".92"/></svg>