<svg xmlns="http://www.w3.org/2000/svg" width="24" height="24" fill="none" viewBox="0 0 24 24"><path fill="#001325" d="M12 3a9 9 0 1 0 0 18 9 9 0 0 0 0-18Zm5.69 5.7a4.64 4.64 0 0 1-1.08 1.13V10a6.86 6.86 0 0 1-1.7 4.46A6.409 6.409 0 0 1 10 16.65a6.58 6.58 0 0 1-3.56-1 .23.23 0 0 1 .15-.42c.167.01.333.01.5 0a4.26 4.26 0 0 0 2.19-.61A2.48 2.48 0 0 1 7.56 13a.21.21 0 0 1 .05-.21.24.24 0 0 1 .095-.066c.037-.014.076-.019.115-.014a2.48 2.48 0 0 1-1.08-2 .26.26 0 0 1 .11-.2.24.24 0 0 1 .23 0c.05 0 .12 0 .18.07a2.43 2.43 0 0 1-.17-2.7.25.25 0 0 1 .18-.12.25.25 0 0 1 .2.09A6.12 6.12 0 0 0 11.68 10a2.002 2.002 0 0 1 0-.24A2.45 2.45 0 0 1 15.8 8a4.3 4.3 0 0 0 1.28-.49.24.24 0 0 1 .26 0 .23.23 0 0 1 .07.25 2.309 2.309 0 0 1-.38.71c.129-.024.256-.057.38-.1a.25.25 0 0 1 .27.06.24.24 0 0 1 .01.27Z" opacity=".92"/></svg>